<svg xmlns="http://www.w3.org/2000/svg" viewBox="0 0 420.27 129.96"><defs><style>.cls-1{fill:#ec4338;}.cls-2{fill:#040404;}.cls-3{fill:#fefefe;}</style></defs><g id="Layer_2" data-name="Layer 2"><g id="Layer_1-2" data-name="Layer 1"><path class="cls-1" d="M374.09,64.37c-1,1.65-2.32,3.07-3.45,4.62a3,3,0,0,0-.73,1.18A42.75,42.75,0,0,0,366,75c-2.54,3.27-5,6.58-7.53,9.87-1.89,2.06-3.48,4.35-5.19,6.56q-14.6,18.84-29.14,37.73a1.54,1.54,0,0,1-1.32.81c-7.19,0-14.39,0-21.87,0L341.66,77.3a2.24,2.24,0,0,0-1.43-.2q-45.21,0-90.42,0c-1.28,0-1.55-.36-1.53-1.57q.1-7.61,0-15.22c0-1.09.31-1.29,1.33-1.29q47.55,0,95.09,0H347L321.22,25.64c.37-.34.74-.19,1.07-.19,6.87,0,13.75,0,20.62,0a1.9,1.9,0,0,1,1.68.85q8.79,11.44,17.64,22.84c.19.25.43.47.64.71Z"/><path class="cls-2" d="M104.69,109.18c-11.09,0-20.2-2.63-28.17-8.78-8.41-6.49-13.65-14.87-15.1-25.47-1.15-8.37-.58-16.58,3.08-24.29A39.44,39.44,0,0,1,90.33,28.87c12.25-3.47,24.27-2.62,35.44,3.88,9.87,5.75,16.67,14.07,19,25.43,2.68,13.1.93,25.42-7.92,36a40.66,40.66,0,0,1-26,14.51A41.56,41.56,0,0,1,104.69,109.18ZM81.11,68.29a23.94,23.94,0,0,0,.46,5.17c2.49,13.31,17.17,21.6,29.69,16.47,8.43-3.45,13.39-9.85,14.27-19.1.76-7.9-1.27-14.84-7.35-20.25-6.6-5.85-14.18-7.39-22.42-4.35S80.86,56.89,81.11,68.29Z"/><path class="cls-2" d="M154.78,86.12c0-7.27-.26-14.55.05-21.81.91-21.28,17.35-34.2,32.5-37.17,9.78-1.91,19.42-1.49,28.52,2.81,12.83,6,21,15.91,23.28,30.13a38,38,0,0,1,.52,6.31q0,20.79,0,41.58c0,1-.28,1.23-1.26,1.22q-8.86-.07-17.74,0c-1,0-1.21-.29-1.21-1.25q0-20.79,0-41.58a22.26,22.26,0,0,0-44.12-4.42,26.93,26.93,0,0,0-.46,5c0,13.66,0,27.32,0,41,0,1.06-.25,1.29-1.29,1.28q-8.82-.07-17.63,0c-1,0-1.33-.15-1.32-1.26.06-7.27,0-14.54,0-21.81Z"/><path class="cls-2" d="M20.72,54.84q0,26.73,0,53.45c0,1-.16,1.34-1.27,1.33-6.12-.07-12.23-.05-18.35,0-.88,0-1.12-.2-1.12-1.11Q0,54.81,0,1.13C0,.26.16,0,1.09,0q9.18.08,18.35,0c1,0,1.31.19,1.31,1.28Q20.69,28.06,20.72,54.84Z"/><path class="cls-2" d="M52.08,67.49q0,20.37,0,40.75c0,1.09-.27,1.38-1.37,1.37q-9.18-.08-18.35,0c-.87,0-1.15-.17-1.15-1.11q0-41,0-82c0-.92.24-1.11,1.13-1.11q9.29.06,18.58,0c1,0,1.15.32,1.15,1.21Q52.06,47.05,52.08,67.49Z"/><path class="cls-2" d="M374.09,64.37,362.87,49.82c3.27-4.27,6.52-8.56,9.81-12.82q12-15.63,24.11-31.25a2.53,2.53,0,0,1,2.26-1.14c6.59.06,13.19,0,19.78,0h1.44c-1.52,2-2.88,3.76-4.25,5.53L374.71,63.65C374.52,63.9,374.29,64.13,374.09,64.37Z"/><path class="cls-2" d="M278.41,109.59c-9.64,0-19.27,0-28.9,0-1,0-1.24-.25-1.23-1.24.06-5.31.05-10.62,0-15.93,0-.86.23-1,1.06-1q29.13,0,58.26,0c.89,0,1.15.2,1.14,1.11,0,5.31-.05,10.63,0,15.94,0,1-.33,1.16-1.22,1.15C297.83,109.57,288.12,109.59,278.41,109.59Z"/><path class="cls-2" d="M278.54,25.44c9.63,0,19.26,0,28.88,0,1,0,1.36.14,1.34,1.27-.07,5.27,0,10.54,0,15.81,0,.75-.15,1-1,1q-29.31,0-58.61,0c-.65,0-.88-.13-.88-.84,0-5.47.05-10.94,0-16.41,0-1,.58-.81,1.14-.81Q264,25.42,278.54,25.44Z"/><path class="cls-2" d="M358.51,84.86c2.51-3.29,5-6.6,7.53-9.87a42.75,42.75,0,0,1,3.87-4.82c2.36,3,4.74,6,7.08,9q11.34,14.66,22.65,29.33c.11.15.32.26.2.65h-1.09c-6.75,0-13.5,0-20.25,0a2.25,2.25,0,0,1-2.07-1c-5.73-7.5-11.53-15-17.3-22.44C358.91,85.46,358.72,85.15,358.51,84.86Z"/><path class="cls-2" d="M41.79,0c3.08,0,6.15,0,9.23,0,.79,0,1.09.14,1.08,1,0,5.35,0,10.7,0,16,0,.74-.14,1-1,1q-9.45,0-18.92,0c-.84,0-1-.29-1-1,0-5.35,0-10.7,0-16,0-.89.3-1,1.09-1C35.48.05,38.64,0,41.79,0Z"/><path class="cls-3" d="M81.11,68.29c-.25-11.4,6.39-19,14.65-22.06s15.82-1.5,22.42,4.35c6.08,5.41,8.11,12.35,7.35,20.25-.88,9.25-5.84,15.65-14.27,19.1-12.52,5.13-27.2-3.16-29.69-16.47A23.94,23.94,0,0,1,81.11,68.29Z"/></g></g></svg>