<svg xmlns="http://www.w3.org/2000/svg" viewBox="0 0 428.89 154.81"><defs><style>.cls-1{fill:#ec4338;}.cls-2{fill:#040404;}.cls-3{fill:#fefefe;}</style></defs><g id="Layer_2" data-name="Layer 2"><g id="Layer_1-2" data-name="Layer 1"><path class="cls-1" d="M374.09,64.37c-1,1.65-2.32,3.07-3.45,4.62a3,3,0,0,0-.73,1.18A42.75,42.75,0,0,0,366,75c-2.54,3.27-5,6.58-7.53,9.87-1.89,2.06-3.48,4.35-5.19,6.56q-14.6,18.84-29.14,37.73a1.54,1.54,0,0,1-1.32.81c-7.19,0-14.39,0-21.87,0L341.66,77.3a2.24,2.24,0,0,0-1.43-.2q-45.21,0-90.42,0c-1.28,0-1.55-.36-1.53-1.57q.1-7.61,0-15.22c0-1.09.31-1.29,1.33-1.29q47.55,0,95.09,0H347L321.22,25.64c.37-.34.74-.19,1.07-.19,6.87,0,13.75,0,20.62,0a1.9,1.9,0,0,1,1.68.85q8.79,11.44,17.64,22.84c.19.25.43.47.64.71Z"/><path class="cls-2" d="M104.69,109.18c-11.09,0-20.2-2.63-28.17-8.78-8.41-6.49-13.65-14.87-15.1-25.47-1.15-8.37-.58-16.58,3.08-24.29A39.44,39.44,0,0,1,90.33,28.87c12.25-3.47,24.27-2.62,35.44,3.88,9.87,5.75,16.67,14.07,19,25.43,2.68,13.1.93,25.42-7.92,36a40.66,40.66,0,0,1-26,14.51A41.56,41.56,0,0,1,104.69,109.18ZM81.11,68.29a23.94,23.94,0,0,0,.46,5.17c2.49,13.31,17.17,21.6,29.69,16.47,8.43-3.45,13.39-9.85,14.27-19.1.76-7.9-1.27-14.84-7.35-20.25-6.6-5.85-14.18-7.39-22.42-4.35S80.86,56.89,81.11,68.29Z"/><path class="cls-2" d="M154.78,86.12c0-7.27-.26-14.55.05-21.81.91-21.28,17.35-34.2,32.5-37.17,9.78-1.91,19.42-1.49,28.52,2.81,12.83,6,21,15.91,23.28,30.13a38,38,0,0,1,.52,6.31q0,20.79,0,41.58c0,1-.28,1.23-1.26,1.22q-8.86-.07-17.74,0c-1,0-1.21-.29-1.21-1.25q0-20.79,0-41.58a22.26,22.26,0,0,0-44.12-4.42,26.93,26.93,0,0,0-.46,5c0,13.66,0,27.32,0,41,0,1.06-.25,1.29-1.29,1.28q-8.82-.07-17.63,0c-1,0-1.33-.15-1.32-1.26.06-7.27,0-14.54,0-21.81Z"/><path class="cls-2" d="M20.72,54.84q0,26.73,0,53.45c0,1-.16,1.34-1.27,1.33-6.12-.07-12.23-.05-18.35,0-.88,0-1.12-.2-1.12-1.11Q0,54.81,0,1.13C0,.26.16,0,1.09,0q9.18.08,18.35,0c1,0,1.31.19,1.31,1.28Q20.69,28.06,20.72,54.84Z"/><path class="cls-2" d="M52.08,67.49q0,20.37,0,40.75c0,1.09-.27,1.38-1.37,1.37q-9.18-.08-18.35,0c-.87,0-1.15-.17-1.15-1.11q0-41,0-82c0-.92.24-1.11,1.13-1.11q9.29.06,18.58,0c1,0,1.15.32,1.15,1.21Q52.06,47.05,52.08,67.49Z"/><path class="cls-2" d="M374.09,64.37,362.87,49.82c3.27-4.27,6.52-8.56,9.81-12.82q12-15.63,24.11-31.25a2.53,2.53,0,0,1,2.26-1.14c6.59.06,13.19,0,19.78,0h1.44c-1.52,2-2.88,3.76-4.25,5.53L374.71,63.65C374.52,63.9,374.29,64.13,374.09,64.37Z"/><path class="cls-2" d="M278.41,109.59c-9.64,0-19.27,0-28.9,0-1,0-1.24-.25-1.23-1.24.06-5.31.05-10.62,0-15.93,0-.86.23-1,1.06-1q29.13,0,58.26,0c.89,0,1.15.2,1.14,1.11,0,5.31-.05,10.63,0,15.94,0,1-.33,1.16-1.22,1.15C297.83,109.57,288.12,109.59,278.41,109.59Z"/><path class="cls-2" d="M278.54,25.44c9.63,0,19.26,0,28.88,0,1,0,1.36.14,1.34,1.27-.07,5.27,0,10.54,0,15.81,0,.75-.15,1-1,1q-29.31,0-58.61,0c-.65,0-.88-.13-.88-.84,0-5.47.05-10.94,0-16.41,0-1,.58-.81,1.14-.81Q264,25.42,278.54,25.44Z"/><path class="cls-2" d="M358.51,84.86c2.51-3.29,5-6.6,7.53-9.87a42.75,42.75,0,0,1,3.87-4.82c2.36,3,4.74,6,7.08,9q11.34,14.66,22.65,29.33c.11.15.32.26.2.65h-1.09c-6.75,0-13.5,0-20.25,0a2.25,2.25,0,0,1-2.07-1c-5.73-7.5-11.53-15-17.3-22.44C358.91,85.46,358.72,85.15,358.51,84.86Z"/><path class="cls-2" d="M41.79,0c3.08,0,6.15,0,9.23,0,.79,0,1.09.14,1.08,1,0,5.35,0,10.7,0,16,0,.74-.14,1-1,1q-9.45,0-18.92,0c-.84,0-1-.29-1-1,0-5.35,0-10.7,0-16,0-.89.3-1,1.09-1C35.48.05,38.64,0,41.79,0Z"/><path class="cls-2" d="M66.89,142.9a1.41,1.41,0,0,1,.29-.1c2.12-.12,2.12-.12,2.69,1.9l1.73,6.13c.74-2.51,1.42-4.75,2-7,.2-.74.45-1.15,1.34-1.06s1.36,0,1.61,1c.53,2.24,1.27,4.43,2,6.78a14.26,14.26,0,0,0,1-3.18c.4-1.25.68-2.54,1-3.8.18-.66,2.07-1.22,2.57-.76.21.2,0,.46,0,.66-1,3.47-2,6.93-3,10.41-.34,1.16-1.25.45-1.89.61s-.9,0-1.08-.73c-.58-2.25-1.29-4.48-2.05-7.07l-1.45,4.82a12.24,12.24,0,0,0-.5,1.84c-.13,1-.65,1.19-1.59,1.19s-1.43-.25-1.7-1.26C69,149.82,67.9,146.36,66.89,142.9Z"/><path class="cls-2" d="M62.66,147.71a19.44,19.44,0,0,0,2.16,0c1-.13,1.17.34,1.13,1.22a5.88,5.88,0,0,1-6.32,5.85,6.11,6.11,0,0,1,.11-12.22,5.82,5.82,0,0,1,5.13,2.28c.25.34,1,.93.31,1.29s-1.36,1.18-2.25.06a3.77,3.77,0,0,0-5.93,0,4,4,0,0,0,.57,5.58,3.83,3.83,0,0,0,5.36-.52c.27-.34.62-.77.47-1.16s-.7-.16-1.08-.19-1,0-1.55,0c-1.31,0-1.6-.42-1.33-1.72.1-.48.4-.41.71-.41Z"/><path class="cls-2" d="M162.85,150.53c0-2.36,0-4.37,0-6.39,0-.93.07-1.35,1.23-1.38,1.31,0,1.17.63,1.17,1.44,0,3,0,6,0,9,0,.45.38,1.21-.31,1.33a2,2,0,0,1-2.18-.5c-1.69-2.07-3.47-4.06-5.22-6.09l-.78-.91c0,2.4-.07,4.54,0,6.67.06,1.22-.72.82-1.31.88s-1.17.08-1.15-.92c.08-3.16,0-6.31.05-9.47,0-.44-.4-1.2.3-1.3s1.53-.36,2.18.46c1.67,2.09,3.42,4.11,5.14,6.16Z"/><path class="cls-2" d="M253.75,150.21c0-2.11.08-4.21,0-6.3-.05-1.06.43-1.08,1.24-1.11s1.22.19,1.2,1.16c-.07,3.11,0,6.23-.05,9.34,0,.42.33,1.13-.29,1.22s-1.47.33-2.1-.42c-1.76-2.11-3.58-4.17-5.38-6.26l-.71-.81c0,2.39-.07,4.52,0,6.65.06,1.21-.7.84-1.3.89s-1.17.11-1.15-.92c.08-3.15,0-6.3.05-9.46,0-.44-.39-1.21.29-1.31s1.59-.33,2.27.54c1.7,2.17,3.51,4.24,5.28,6.35C253.23,149.94,253.32,150.18,253.75,150.21Z"/><path class="cls-2" d="M43.42,147c0,2.44-.06,4.58,0,6.72,0,1.14-.68.81-1.24.83s-1.24.27-1.22-.85c.08-3.19,0-6.39,0-9.58,0-.43-.28-1.17.24-1.25.74-.1,1.59-.37,2.28.5,1.71,2.15,3.51,4.23,5.28,6.34l.71.8v-4.28a17.14,17.14,0,0,0,0-2.15c-.13-1.05.23-1.36,1.29-1.31.86,0,1.15.18,1.13,1.11-.07,3.11,0,6.23,0,9.34,0,.44.28,1.16-.24,1.26-.72.14-1.54.36-2.2-.43C47.77,152,46,150,44.25,148,44,147.71,43.84,147.46,43.42,147Z"/><path class="cls-2" d="M144.77,150.17c0-2.11.07-4.21,0-6.29-.05-1.08.44-1.08,1.24-1.12s1.21.2,1.19,1.17c-.06,3.07,0,6.14,0,9.22,0,.45.37,1.21-.3,1.33a2,2,0,0,1-2.18-.5c-1.7-2.06-3.47-4.06-5.22-6.08l-.79-.91c0,2.39-.07,4.53,0,6.66.06,1.22-.71.83-1.3.88s-1.18.1-1.15-.91c.07-3.15,0-6.31.05-9.46,0-.45-.4-1.21.29-1.32s1.59-.32,2.27.55c1.69,2.17,3.51,4.24,5.28,6.34C144.25,149.9,144.34,150.15,144.77,150.17Z"/><path class="cls-2" d="M395.73,146.89c0,2.4-.08,4.51,0,6.61.06,1.16-.61.92-1.25.94s-1.24.09-1.21-1c.09-3.15,0-6.31,0-9.46,0-.43-.29-1.16.26-1.24s1.53-.4,2.19.42c1.72,2.15,3.52,4.23,5.29,6.34.17.2.36.4.78.87v-6.19c0-1.46.58-1.88,2-1.51.4.1.37.34.37.62v10.54c0,.27,0,.62-.38.59-.71-.06-1.46.24-2.08-.51-1.73-2.09-3.53-4.12-5.3-6.17Z"/><path class="cls-2" d="M294.4,147c0,2.45-.06,4.59,0,6.74.05,1.26-.81.74-1.36.81s-1.11.13-1.09-.85c.08-3.15,0-6.31,0-9.46,0-.47-.33-1.25.24-1.36.74-.13,1.6-.37,2.28.5,1.71,2.15,3.52,4.23,5.29,6.34.14.17.3.34.7.79v-6.2c0-1.47.56-1.87,2-1.51.4.1.37.34.37.61V154c0,.27.05.63-.37.6-.72-.06-1.47.25-2.09-.5C298.74,152,297,150,295.22,148Z"/><path class="cls-2" d="M286.85,150.29l3.72,4.16c-1.86.44-3.26.08-4.29-1.52a27.82,27.82,0,0,0-2-2.25,1.24,1.24,0,0,0-1.4-.39c-.54.14-.22.67-.25,1-.05.63,0,1.28,0,1.92a1.42,1.42,0,0,1-2.14,1.34c-.39-.16-.26-.46-.26-.7,0-3.44,0-6.87,0-10.31,0-.71.29-.75.84-.75,1.52,0,3,0,4.56,0,2.46,0,4.14,1.14,4.44,3C290.41,148,289.46,149.32,286.85,150.29Zm-2.24-2.19c.43,0,.87,0,1.31,0,1-.05,1.73-.36,1.79-1.49.05-1-.6-1.56-1.79-1.61-.71,0-1.43.06-2.14,0-.95-.11-1.19.24-1.16,1.16C282.69,148.09,282.64,148.1,284.61,148.1Z"/><path class="cls-2" d="M208.42,150.3l3.77,4.2c-1.6.11-3,.39-4.05-1.22a32.51,32.51,0,0,0-2.19-2.53,1.33,1.33,0,0,0-1.5-.46c-.51.15-.2.68-.22,1a9.84,9.84,0,0,0,0,2c.13,1-.21,1.26-1.21,1.25s-1.26-.24-1.23-1.24c.07-3.19.05-6.39,0-9.59,0-.78.2-1,1-1,1.43.07,2.87,0,4.31,0,2.5,0,4.17,1.07,4.53,2.88C212,147.84,211.08,149.27,208.42,150.3ZM206.25,145c-2,0-2,0-2,2,0,.2,0,.39,0,.59s.08.52.46.51c1.07,0,2.15.05,3.21,0a1.41,1.41,0,0,0,1.4-1.49,1.45,1.45,0,0,0-1.36-1.53A9.29,9.29,0,0,0,206.25,145Z"/><path class="cls-2" d="M33,154.77a6.11,6.11,0,1,1,6.17-6.07A6,6,0,0,1,33,154.77Zm-3.77-6.14a3.8,3.8,0,0,0,3.76,4,3.84,3.84,0,0,0,3.81-3.81,3.89,3.89,0,0,0-3.73-4A3.82,3.82,0,0,0,29.27,148.63Z"/><path class="cls-2" d="M105.5,154.77a6.11,6.11,0,1,1,6.15-6.1A6,6,0,0,1,105.5,154.77Zm-3.79-6.08a3.78,3.78,0,1,0,7.56,0,3.88,3.88,0,0,0-3.78-4A3.82,3.82,0,0,0,101.71,148.69Z"/><path class="cls-2" d="M84.68,148.66c0-1.72,0-3.44,0-5.15,0-.58.17-.74.74-.73,2.48,0,5,.05,7.43,0,1.09,0,.7.68.75,1.19s.09,1.06-.81,1c-1.59-.09-3.19,0-4.79,0-.74,0-1,.17-.91.92a4.26,4.26,0,0,1,0,1.07c-.06.53.14.69.67.67,1.52,0,3,.06,4.55,0,1.08-.06.75.64.78,1.17s.16,1.09-.78,1c-1.44-.09-2.88,0-4.32,0-.75,0-1,.2-.9.93a3.78,3.78,0,0,1,0,.95c-.09.65.18.81.8.79,1.63,0,3.28.05,4.91,0,.91,0,.86.45.8,1s.33,1.21-.75,1.19c-2.48-.07-5,0-7.44,0-.58,0-.74-.17-.73-.74C84.7,152.09,84.68,150.38,84.68,148.66Z"/><path class="cls-2" d="M420,148.53c0-1.64,0-3.28,0-4.91,0-.69.1-1,.89-1,2.4.06,4.8.08,7.19,0,1,0,.85.52.85,1.11s.17,1.17-.85,1.1c-1.51-.1-3,0-4.55-.05-1-.06-1.25.32-1.12,1.2a.59.59,0,0,1,0,.23c-.17.95.12,1.35,1.18,1.26,1.27-.11,2.56,0,3.83,0,.9-.06,1.05.28,1,1.08s0,1.2-1,1.13c-1.39-.1-2.79,0-4.19,0-.64,0-1,.11-.87.83a3,3,0,0,1,0,.84c-.11.74.12,1,.94,1,1.6-.07,3.2,0,4.8,0,1.07-.06.74.64.77,1.16s.14,1.07-.79,1c-2.43-.07-4.87-.05-7.31,0-.73,0-.83-.26-.82-.89C420,151.88,420,150.21,420,148.53Z"/><path class="cls-2" d="M125.21,148.66c0-1.72,0-3.44,0-5.15,0-.59.17-.74.74-.73,2.48,0,4.95.05,7.43,0,1.09,0,.7.68.75,1.19s.08,1.06-.81,1c-1.6-.08-3.2,0-4.8,0-.74,0-1,.17-.91.92a4.26,4.26,0,0,1,0,1.07c0,.53.15.69.68.67,1.51,0,3,.06,4.55,0,1.08-.06.74.64.77,1.17s.16,1.09-.78,1c-1.43-.09-2.88,0-4.31,0-.76,0-1,.2-.91.93a3,3,0,0,1,0,.95c-.09.65.19.8.8.79,1.64,0,3.28.05,4.92,0,.91,0,.85.45.8,1s.32,1.21-.76,1.19c-2.47-.07-5,0-7.43,0-.58,0-.74-.17-.73-.74C125.23,152.09,125.21,150.37,125.21,148.66Z"/><path class="cls-2" d="M332.89,148.56c0-1.71,0-3.43,0-5.15,0-.57.16-.74.74-.73,2.47,0,4.95,0,7.43,0,1.08,0,.71.68.75,1.19s.1,1.06-.8,1c-1.6-.08-3.2,0-4.8,0-.73,0-1,.16-.91.91a3.43,3.43,0,0,1,0,1c-.08.62.15.82.78.8,1.48-.05,3,.05,4.44,0,1.07-.06.75.64.78,1.16s.17,1.1-.78,1c-1.43-.09-2.88,0-4.32,0-.74,0-1,.19-.9.93a3.78,3.78,0,0,1,0,.95c-.09.64.17.81.79.79,1.64,0,3.28.05,4.92,0,.9,0,.86.44.8,1s.34,1.22-.75,1.19c-2.48-.07-5,0-7.43,0-.58,0-.75-.16-.74-.74C332.91,152,332.89,150.28,332.89,148.56Z"/><path class="cls-2" d="M305.43,148.68c0-1.68,0-3.35,0-5,0-.55,0-.86.75-.85,2.47,0,4.95.06,7.43,0,1.1,0,.68.71.74,1.2s.06,1.05-.82,1c-1.6-.08-3.2,0-4.8,0-.76,0-1,.2-.9.93a4.34,4.34,0,0,1,0,1.08c-.06.54.18.67.69.66,1.51,0,3,.05,4.55,0,1.08-.06.72.66.76,1.17s.14,1.09-.79,1c-1.43-.09-2.88,0-4.31-.05-.78,0-1,.23-.9.94a4.34,4.34,0,0,1,0,1.08c-.06.56.2.66.69.65,1.68,0,3.36.05,5,0,.92,0,.83.47.79,1s.3,1.2-.77,1.17c-2.47-.07-4.95,0-7.43,0-.6,0-.73-.19-.72-.75C305.45,152.12,305.43,150.4,305.43,148.68Z"/><path class="cls-2" d="M167.51,148.7c0-1.72,0-3.44,0-5.15,0-.58.15-.75.73-.74,2.48,0,5,.06,7.44,0,1.08,0,.71.68.75,1.19s.1,1.06-.8,1c-1.6-.08-3.2,0-4.8,0-.73,0-1,.16-.92.92a3.36,3.36,0,0,1,0,1c-.08.62.14.82.78.8,1.48,0,3,.05,4.43,0,1.08-.07.76.63.78,1.15s.18,1.11-.77,1.05c-1.43-.09-2.88,0-4.32,0-.74,0-1,.17-.9.92a3.78,3.78,0,0,1,0,.95c-.09.64.17.81.79.8,1.6-.05,3.2,0,4.79,0,.85,0,1,.28.95,1s.21,1.24-.89,1.2c-2.39-.1-4.8-.06-7.19,0-.68,0-.88-.18-.86-.86C167.55,152.05,167.51,150.38,167.51,148.7Z"/><path class="cls-2" d="M269.21,148.68c0-1.68,0-3.36,0-5,0-.56,0-.86.74-.85,2.48,0,5,.06,7.44,0,1,0,.74.59.73,1.09s.31,1.15-.7,1.11c-1.64-.07-3.28,0-4.92,0-.77,0-1,.22-.9.94a4.26,4.26,0,0,1,0,1.07c-.07.55.18.67.68.66,1.52,0,3,.05,4.55,0,1.09-.06.72.66.76,1.17s.13,1.09-.79,1c-1.44-.09-2.88,0-4.32-.05-.78,0-1,.24-.89.95a4.26,4.26,0,0,1,0,1.07c-.07.57.2.66.69.65,1.68,0,3.36.05,5,0,.93,0,.83.48.79,1s.3,1.2-.77,1.17c-2.48-.07-5,0-7.43,0-.61,0-.73-.2-.72-.75C269.23,152.11,269.21,150.39,269.21,148.68Z"/><path class="cls-2" d="M360.64,154.68a6.09,6.09,0,0,1-5.91-4.18,6.2,6.2,0,0,1,2.33-7,6.38,6.38,0,0,1,7.29.1,5.11,5.11,0,0,1,1.53,1.8c.74,1.42.69,1.44-.84,1.93-.65.2-.94.17-1.22-.54a3.29,3.29,0,0,0-3.85-2.07,3.73,3.73,0,0,0-3.1,3.82,3.81,3.81,0,0,0,3.09,3.86,3.29,3.29,0,0,0,3.86-2.08c.52-1.47,1.46-.49,2.12-.4.9.13.26.84.13,1.21A5.5,5.5,0,0,1,360.64,154.68Z"/><path class="cls-2" d="M378.57,148.68c0,1.64-.07,3.28,0,4.91.06,1.13-.66.83-1.23.84s-1.29.2-1.19-.88,0-2.15,0-3.23c0-.52-.15-.7-.68-.69-1.44,0-2.88,0-4.31,0-.53,0-.69.15-.68.67,0,1.16,0,2.32,0,3.48,0,.52-.16.65-.68.67-1.74.07-1.74.1-1.74-1.64,0-3.07.06-6.15,0-9.22,0-1.18.67-.87,1.28-.9s1.27-.15,1.17.9,0,2.16,0,3.23c0,.53.15.69.68.68,1.43,0,2.87,0,4.31,0,.53,0,.7-.17.68-.68,0-1.08.07-2.17,0-3.24s.58-.89,1.19-.88,1.29-.28,1.23.84C378.5,145.25,378.57,147,378.57,148.68Z"/><path class="cls-2" d="M354.11,154.35c-2,.47-3.43-.06-4.21-2a14.94,14.94,0,0,0-1.37-2.2c-.69,1.07-1.38,2-1.91,3a1.94,1.94,0,0,1-2.23,1.27,8.92,8.92,0,0,0-1.48,0c1.13-1.77,2.15-3.46,3.27-5.08a1.24,1.24,0,0,0,0-1.67c-1.09-1.59-2.12-3.23-3.26-5,.91,0,1.66,0,2.4,0,.57,0,.73.37,1,.73.74,1.13,1.46,2.26,2.27,3.51.69-1.08,1.39-2,1.91-3a2,2,0,0,1,2.25-1.24,9.89,9.89,0,0,0,1.46,0c-1.14,1.76-2.15,3.42-3.28,5a1.3,1.3,0,0,0,0,1.77C352,151,353,152.64,354.11,154.35Z"/><path class="cls-2" d="M224.78,154.57a5.32,5.32,0,0,0-.93,0,1.74,1.74,0,0,1-2.29-1.52,1.13,1.13,0,0,0-1.43-1,6.75,6.75,0,0,1-1.68,0c-1.64-.19-3,0-3.27,2-.06.39-.34.57-.78.54-.64,0-1.28,0-2,0,1.65-3.83,3.25-7.58,4.89-11.31.31-.69,2.3-.66,2.61,0C221.5,147,223.1,150.7,224.78,154.57Zm-7.91-4.66h2.78c.28,0,.61,0,.42-.43-.47-1.17-.95-2.34-1.51-3.72Z"/><path class="cls-2" d="M379.92,154.39c1.63-3.78,3.24-7.49,4.82-11.21a.74.74,0,0,1,.94-.48c.57.13,1.33-.43,1.69.39,1.64,3.74,3.26,7.48,4.94,11.35a10,10,0,0,0-1.1,0,1.54,1.54,0,0,1-2-1.34c-.18-1-.81-1.29-1.8-1.21a29.32,29.32,0,0,1-3.11,0,.9.9,0,0,0-1,.61C382.35,154.5,382.33,154.49,379.92,154.39Zm4.47-4.62h2.75c.38,0,.65-.06.44-.53a27.09,27.09,0,0,0-1.53-3.51Z"/><path class="cls-2" d="M113.46,148.66c0-1.71,0-3.43,0-5.15,0-.57.14-.75.73-.73,1.71,0,3.43,0,5.15,0a3.95,3.95,0,1,1,0,7.89c-1.12.05-2.53-.36-3.26.18s-.17,2-.21,3.07c0,.46-.15.58-.61.61-1.8.12-1.8.15-1.8-1.7Zm4.33-.12c.48,0,1,0,1.44,0a1.79,1.79,0,0,0,0-3.57c-.56-.05-1.12,0-1.68,0-1.66,0-1.66,0-1.66,1.69C115.86,148.54,115.86,148.54,117.79,148.54Z"/><path class="cls-2" d="M178.51,146.68v-2.52a1.34,1.34,0,0,1,2-1.33c.44.18.27.53.28.81.06,2.07-.1,4.15.11,6.21a2.66,2.66,0,1,0,5.32-.19c0-2,.08-4,0-6,0-1.13.65-.85,1.23-.85s1.27-.29,1.22.83c-.08,2,0,4.08,0,6.11a4.82,4.82,0,0,1-5,5,4.9,4.9,0,0,1-5.09-5C178.48,148.76,178.51,147.72,178.51,146.68Z"/><path class="cls-2" d="M261.5,149.78c0-1.32,0-2.64,0-4,0-.69-.21-.9-.88-.85s-1.45-.06-2.16,0c-.93.11-.93-.42-.89-1.07s-.19-1.16.84-1.13c2.87.07,5.75.06,8.63,0,1,0,.7.62.7,1.11s.28,1.22-.71,1.07h-.36c-2.78,0-2.78,0-2.78,2.74,0,2-.07,4,0,6,.06,1.12-.64.86-1.22.85s-1.31.3-1.23-.83C261.57,152.42,261.5,151.1,261.5,149.78Z"/><path class="cls-2" d="M195.37,142.82c1.35,0,2.72.06,4.07,0,.84-.05,1,.28.94,1s.24,1.28-.88,1.2c-1-.06-2.32-.48-2.84.19s-.14,1.91-.15,2.9c0,1.88-.06,3.76,0,5.63.05,1.27-.81.76-1.37.83s-1.12.13-1.09-.85c.09-2.56,0-5.12.05-7.67,0-.8-.14-1.19-1-1.07a13.28,13.28,0,0,1-1.67,0,1.27,1.27,0,0,1-1.21-1.91c.16-.36.47-.24.72-.24Z"/><path class="cls-2" d="M320.68,142.82c1.48,0,3,.05,4.43,0,1-.05.68.63.7,1.11s.26,1.21-.73,1.06h-.23c-1,.08-2.2-.42-2.75.21s-.14,1.75-.14,2.66c0,2-.07,3.92,0,5.87,0,1.13-.66.84-1.24.84s-1.26.29-1.22-.84c.08-2.55,0-5.11.05-7.67,0-.93-.27-1.19-1.14-1.08-.47.06-1-.06-1.43,0-1.22.22-1.47-.32-1.4-1.43,0-.71.33-.75.88-.75C317.88,142.84,319.28,142.82,320.68,142.82Z"/><path class="cls-2" d="M226,148.63c0-1.67.06-3.35,0-5-.06-1.07.63-.81,1.15-.77s1.32-.44,1.29.76c-.07,2.63,0,5.26,0,7.89,0,.71.12,1,.9.94,1.47-.07,3,0,4.43,0,1,0,.71.61.71,1.1s.28,1.13-.71,1.1c-2.31-.06-4.63-.05-6.94,0-.66,0-.8-.21-.78-.81C226.06,152.06,226,150.35,226,148.63Z"/><path class="cls-2" d="M4.8,147.64c0,1.32,0,2.63,0,4,0,.61.14.82.79.8,1.51,0,3,0,4.54,0,1-.05.7.63.71,1.11s.26,1.11-.73,1.09c-2.31-.07-4.62,0-6.94,0-.52,0-.78-.06-.77-.69q0-5.21,0-10.41c0-.53.17-.65.68-.67,1.74-.07,1.73-.09,1.73,1.64Z"/><path class="cls-2" d="M17.52,148.55c0-1.64.07-3.28,0-4.9-.07-1.12.62-.87,1.21-.85s1.27-.33,1.24.81c-.08,2.51,0,5-.06,7.54-.05,1.12.34,1.31,1.32,1.25,1.36-.09,2.72,0,4.07,0,.92,0,.7.57.66,1s.41,1.18-.63,1.17c-2.36,0-4.71,0-7.06,0-.58,0-.75-.16-.74-.74C17.54,152.06,17.52,150.3,17.52,148.55Z"/><path class="cls-2" d="M242.83,148.71c0,1.68-.06,3.36,0,5,.05.88-.41.95-1,.81s-1.45.59-1.44-.72c0-3.43,0-6.87,0-10.3,0-1.22.86-.6,1.35-.68s1.12-.27,1.08.71C242.78,145.28,242.83,147,242.83,148.71Z"/><path class="cls-2" d="M15.12,148.78c0,1.68,0,3.36,0,5,0,1.12-.74.7-1.21.7s-1.23.42-1.22-.7c.05-3.43.05-6.87,0-10.3,0-1.11.74-.7,1.22-.7s1.25-.42,1.21.7C15.07,145.26,15.12,147,15.12,148.78Z"/><path class="cls-3" d="M81.11,68.29c-.25-11.4,6.39-19,14.65-22.06s15.82-1.5,22.42,4.35c6.08,5.41,8.11,12.35,7.35,20.25-.88,9.25-5.84,15.65-14.27,19.1-12.52,5.13-27.2-3.16-29.69-16.47A23.94,23.94,0,0,1,81.11,68.29Z"/><path class="cls-3" d="M284.61,148.1c-2,0-1.92,0-2-2,0-.92.21-1.27,1.16-1.16.71.09,1.43,0,2.14,0,1.19,0,1.84.64,1.79,1.61-.06,1.13-.83,1.44-1.79,1.49C285.48,148.12,285,148.1,284.61,148.1Z"/><path class="cls-3" d="M206.25,145a9.29,9.29,0,0,1,1.67,0,1.45,1.45,0,0,1,1.36,1.53,1.41,1.41,0,0,1-1.4,1.49c-1.06.1-2.14,0-3.21,0-.38,0-.48-.17-.46-.51s0-.39,0-.59C204.21,145,204.21,145,206.25,145Z"/><path class="cls-3" d="M29.27,148.63a3.82,3.82,0,0,1,3.84-3.88,3.89,3.89,0,0,1,3.73,4A3.84,3.84,0,0,1,33,152.58,3.8,3.8,0,0,1,29.27,148.63Z"/><path class="cls-3" d="M101.71,148.69a3.82,3.82,0,0,1,3.78-3.94,3.88,3.88,0,0,1,3.78,4,3.78,3.78,0,1,1-7.56,0Z"/><path class="cls-3" d="M216.87,149.91l1.69-4.16c.56,1.38,1,2.55,1.51,3.72.19.46-.14.43-.42.43Z"/><path class="cls-3" d="M384.39,149.77l1.66-4a27.09,27.09,0,0,1,1.53,3.51c.21.47-.06.53-.44.53Z"/><path class="cls-3" d="M117.79,148.54c-1.93,0-1.93,0-1.93-1.9,0-1.69,0-1.69,1.66-1.69.56,0,1.12,0,1.68,0a1.79,1.79,0,0,1,0,3.57C118.76,148.57,118.27,148.54,117.79,148.54Z"/><path class="cls-2" d="M414.79,147.63a17.28,17.28,0,0,0,2.16,0c1-.12,1.17.34,1.13,1.22a5.88,5.88,0,0,1-6.32,5.86,6.12,6.12,0,0,1,.11-12.23,5.84,5.84,0,0,1,5.13,2.28c.25.35,1,.94.31,1.29s-1.36,1.19-2.25.06a3.78,3.78,0,0,0-5.93,0,4,4,0,0,0,.57,5.57,3.83,3.83,0,0,0,5.36-.51c.27-.35.62-.78.47-1.17s-.7-.16-1.08-.19-1,0-1.55,0c-1.31,0-1.6-.41-1.33-1.71.11-.48.4-.42.71-.42Z"/></g></g></svg>